<?xml version="1.0" standalone="no"?>
<!DOCTYPE svg PUBLIC "-//W3C//DTD SVG 1.1//EN" "http://www.w3.org/Graphics/SVG/1.1/DTD/svg11.dtd"><svg class="icon"
  width="200px" height="200.00px" viewBox="0 0 1024 1024" version="1.1" xmlns="http://www.w3.org/2000/svg">
  <path fill="#333333"
    d="M168.86 265.88h682.86v359.93H168.86V265.88z m115.37 423.58c20.92 0 37.88 17.01 37.88 37.99s-16.96 37.99-37.88 37.99-37.88-17.01-37.88-37.99 16.96-37.99 37.88-37.99z m143.63 0c20.92 0 37.88 17.01 37.88 37.99s-16.96 37.99-37.88 37.99-37.88-17.01-37.88-37.99 16.96-37.99 37.88-37.99z m152.52-0.06c20.92 0 37.88 17.01 37.88 37.99s-16.96 37.99-37.88 37.99-37.88-17.01-37.88-37.99 16.96-37.99 37.88-37.99z m152.13-0.03c20.92 0 37.88 17.01 37.88 37.99s-16.96 37.99-37.88 37.99-37.88-17.01-37.88-37.99 16.96-37.99 37.88-37.99zM562.52 367.53L409.59 545.87h305.86L562.52 367.53zM327 336c-29.27 0-53 23.73-53 53s23.73 53 53 53 53-23.73 53-53-23.73-53-53-53z" />
  </svg>
